<svg width="275" height="86" viewBox="0 0 275 86" fill="none" xmlns="http://www.w3.org/2000/svg">
<rect y="69" width="275" height="15.94" fill="#DC3545"/>
<path fill-rule="evenodd" clip-rule="evenodd" d="M15.6213 69.5138H12.14L9.86602 79.4838C9.45242 81.3103 8.24512 82.381 5.9025 82.381C4.31676 82.381 3.21327 81.4477 3.6972 79.3464L5.93599 69.5138H2.45305L0.179092 79.5525C-0.132363 81.069 -0.0637091 82.2771 0.592691 83.2088C1.69618 84.7269 3.868 85.0386 5.34992 85.0386C9.45075 85.0386 12.4498 83.3478 13.3456 79.3481L15.6213 69.5138Z" fill="white"/>
<path fill-rule="evenodd" clip-rule="evenodd" d="M25.9947 80.0334H25.926L21.8939 69.5138H18.3088L14.8275 84.6565H17.999L20.4789 73.8604H20.5141L24.7204 84.6565H28.0979L31.5791 69.5138H28.4076L25.9947 80.0334Z" fill="white"/>
<path fill-rule="evenodd" clip-rule="evenodd" d="M37.4733 69.5138H34.0959L30.6129 84.6565H34.0272L37.4733 69.5138Z" fill="white"/>
<path fill-rule="evenodd" clip-rule="evenodd" d="M43.4362 80.9651H43.4027L42.5403 69.5138H38.8866L40.9211 84.6565H44.1612L53.1566 69.5138H49.6067L43.4362 80.9651Z" fill="white"/>
<path fill-rule="evenodd" clip-rule="evenodd" d="M66.8071 69.5138H54.8462L51.3633 84.6565H63.7378L64.359 81.9688H55.3285L56.2243 78.0344H64.153L64.7726 75.3785H56.8456L57.5689 72.1714H66.221L66.8071 69.5138Z" fill="white"/>
<path fill-rule="evenodd" clip-rule="evenodd" d="M66.0134 84.6565H69.3574L70.7372 78.7248H74.2519C76.7687 78.7248 76.6983 79.519 76.2496 81.5868C75.8712 83.1384 75.836 83.931 75.9063 84.6565H79.6622L79.766 84.2427C79.1096 84.0014 79.2134 83.4501 79.7309 81.2416C80.3856 78.4131 79.766 77.9322 78.5235 77.3793C80.2818 76.8967 81.4891 75.4473 81.8675 73.79C82.1773 72.4814 82.0751 69.5121 77.7315 69.5121H69.4947L66.0134 84.6565ZM71.2881 76.1728L72.2174 72.1362H76.4924C78.4917 72.1362 78.5955 73.3091 78.4231 74.1017C78.0765 75.5863 77.0785 76.1728 75.2851 76.1728H71.2881Z" fill="white"/>
<path fill-rule="evenodd" clip-rule="evenodd" d="M82.1455 80.0016C81.7319 81.8632 82.0065 85.0386 87.971 85.0386C89.3843 85.0386 94.4848 84.6565 95.5196 80.1038C96.1409 77.3809 94.3123 76.5163 92.1757 76.0337L88.4198 75.102C87.7634 74.9646 86.7989 74.7217 87.0735 73.5487C87.3833 72.1714 89.0025 71.7223 90.3136 71.7223C93.2775 71.7223 93.1737 73.3074 93.1402 73.9978H96.3803C96.7939 72.1345 96.1392 69.0982 91.176 69.0982C85.8679 69.0982 84.2135 72.0658 83.835 73.7548C83.0765 77.1011 85.4894 77.6524 87.971 78.2036L89.6589 78.584C91.2798 78.9644 92.4503 79.2744 92.174 80.4808C91.7956 82.0677 89.9352 82.448 88.3126 82.448C85.3488 82.448 85.2466 80.826 85.4174 79.9999H82.1455V80.0016Z" fill="white"/>
<path fill-rule="evenodd" clip-rule="evenodd" d="M103.17 69.5138H99.7929L96.3116 84.6565H99.7243L103.17 69.5138Z" fill="white"/>
<path fill-rule="evenodd" clip-rule="evenodd" d="M102.412 84.6565H109.478C114.853 84.6565 117.301 79.9664 118.062 76.7241C118.715 73.8604 118.577 69.5138 113.062 69.5138H105.858L102.412 84.6565ZM108.618 72.1345H111.893C113.341 72.1345 115.547 72.4813 114.512 76.9637C113.959 79.447 112.442 82.0358 109.651 82.0358H106.342L108.618 72.1345Z" fill="white"/>
<path fill-rule="evenodd" clip-rule="evenodd" d="M122.472 81.5164H128.472L128.815 84.6565H132.502L130.23 69.5138H126.3L117.027 84.6565H120.613L122.472 81.5164ZM127.437 72.9304H127.471L128.127 78.8974H123.991L127.437 72.9304Z" fill="white"/>
<path fill-rule="evenodd" clip-rule="evenodd" d="M134.192 84.6565H141.26C146.637 84.6565 149.118 79.9664 149.842 76.7241C150.5 73.8604 150.363 69.5138 144.88 69.5138H137.673L134.192 84.6565ZM140.396 72.1345H143.67C145.118 72.1345 147.359 72.4813 146.327 76.9637C145.741 79.447 144.224 82.0358 141.468 82.0358H138.157L140.396 72.1345Z" fill="white"/>
<path fill-rule="evenodd" clip-rule="evenodd" d="M165.559 69.5138H153.563L150.116 84.6565H162.491L163.079 81.9688H154.048L154.942 78.0344H162.906L163.524 75.3785H155.562L156.287 72.1714H164.937L165.559 69.5138Z" fill="white"/>
<path fill-rule="evenodd" clip-rule="evenodd" d="M175.106 79.1738H179.037C183.415 79.1738 184.999 75.722 185.346 74.343C185.999 71.3771 184.519 69.5138 181.381 69.5138H173.936L170.456 84.6565H173.867L175.106 79.1738ZM175.728 76.5867L176.727 72.1362H179.448C181.552 72.1362 182.277 72.7243 181.964 74.2056C181.793 74.8943 181.416 76.5867 178.864 76.5867H175.728Z" fill="white"/>
<path fill-rule="evenodd" clip-rule="evenodd" d="M187.62 81.5164H193.616L193.961 84.6565H197.65L195.376 69.5138H191.445L182.173 84.6565H185.758L187.62 81.5164ZM192.583 72.9304H192.618L193.273 78.8974H189.102L192.583 72.9304Z" fill="white"/>
<path fill-rule="evenodd" clip-rule="evenodd" d="M215.849 69.5138H212.401L210.092 79.4838C209.68 81.3103 208.506 82.381 206.163 82.381C204.576 82.381 203.472 81.4477 203.956 79.3464L206.195 69.5138H202.714L200.406 79.5525C200.13 81.069 200.164 82.2771 200.853 83.2088C201.959 84.7269 204.097 85.0386 205.612 85.0386C209.713 85.0386 212.712 83.3478 213.608 79.3481L215.849 69.5138Z" fill="white"/>
<path fill-rule="evenodd" clip-rule="evenodd" d="M222.121 69.5138H218.712L215.227 84.6565H226.741L227.397 81.8968H219.261L222.121 69.5138Z" fill="white"/>
<path fill-rule="evenodd" clip-rule="evenodd" d="M235.221 69.5138H231.81L228.362 84.6565H231.741L235.221 69.5138Z" fill="white"/>
<path fill-rule="evenodd" clip-rule="evenodd" d="M234.668 80.0016C234.219 81.8632 234.531 85.0386 240.494 85.0386C241.909 85.0386 247.007 84.6565 248.046 80.1038C248.665 77.3809 246.803 76.5163 244.698 76.0337L240.944 75.102C240.289 74.9646 239.29 74.7217 239.566 73.5487C239.877 72.1714 241.53 71.7223 242.84 71.7223C245.805 71.7223 245.7 73.3074 245.631 73.9978H248.905C249.32 72.1345 248.665 69.0982 243.665 69.0982C238.394 69.0982 236.738 72.0658 236.326 73.7548C235.566 77.1011 238.012 77.6524 240.494 78.2036L242.146 78.584C243.802 78.9644 244.938 79.2744 244.697 80.4808C244.317 82.0677 242.424 82.448 240.837 82.448C237.838 82.448 237.769 80.826 237.94 79.9999H234.668V80.0016Z" fill="white"/>
<path fill-rule="evenodd" clip-rule="evenodd" d="M258.866 72.1714H263.794L264.416 69.5138H251.145L250.559 72.1714H255.455L252.625 84.6565H256.04L258.866 72.1714Z" fill="white"/>
<path fill-rule="evenodd" clip-rule="evenodd" d="M264.968 81.5164H270.966L271.309 84.6565H274.998L272.723 69.5138H268.793L259.519 84.6565H263.106L264.968 81.5164ZM269.93 72.9304H269.965L270.621 78.8974H266.484L269.93 72.9304Z" fill="white"/>
<path fill-rule="evenodd" clip-rule="evenodd" d="M227.992 8.65969L221.955 21.1934H236.888C238.179 21.1934 238.985 20.984 240.1 20.3221C241.147 19.6938 241.706 19.1341 242.228 18.0181L244.183 13.9664C244.775 12.7801 244.496 11.7328 243.834 10.6135C243.032 9.25286 241.845 8.65969 240.274 8.65969H227.992V8.65969ZM211.629 0H262.153C264.352 0 265.747 0.978572 267.141 2.65421C269.447 5.48268 268.679 8.72839 267.141 12.0093L261.981 22.9746C260.829 25.4546 260.166 27.0247 258.072 28.8042C255.316 31.1099 252.943 31.8086 249.347 31.8086H216.793C214.979 36.4166 212.92 38.9317 208.804 41.6898C205.105 44.1346 202.384 45.2154 197.953 45.2154H190.485L211.629 0Z" fill="#FFF100"/>
<path d="M227.992 8.65969L221.955 21.1934H236.888C238.179 21.1934 238.985 20.984 240.1 20.3221C241.147 19.6938 241.706 19.1341 242.228 18.0181L244.183 13.9664C244.775 12.7801 244.496 11.7328 243.834 10.6135C243.032 9.25286 241.845 8.65969 240.274 8.65969H227.992V8.65969ZM211.629 0H262.153C264.352 0 265.747 0.978572 267.141 2.65421C269.447 5.48268 268.679 8.72839 267.141 12.0093L261.981 22.9746C260.829 25.4546 260.166 27.0247 258.072 28.8042C255.316 31.1099 252.943 31.8086 249.347 31.8086H216.793C214.979 36.4166 212.92 38.9317 208.804 41.6898C205.105 44.1346 202.384 45.2154 197.953 45.2154H190.485L211.629 0Z" fill="#FFF100"/>
<path fill-rule="evenodd" clip-rule="evenodd" d="M152.238 0.174255H171.429L156.672 31.9845C154.473 36.6981 151.962 39.421 147.598 42.5628C144.947 44.52 137.342 46.7888 130.885 45.3913L118.604 21.5436L113.822 31.9829C111.66 36.626 109.076 39.4193 104.749 42.5611C102.064 44.5183 94.4563 46.7871 88.0028 45.3896L109.354 0.174255H128.581L141.734 22.2776L152.238 0.174255Z" fill="#FFF100"/>
<path fill-rule="evenodd" clip-rule="evenodd" d="M160.23 45.2187L181.409 0H200.602L185.843 31.8103C183.645 36.5238 181.131 39.2484 176.771 42.3886C174.117 44.3474 166.685 46.6145 160.23 45.2187Z" fill="#FFF100"/>
<path fill-rule="evenodd" clip-rule="evenodd" d="M56.1774 0H36.0785L22.7496 28.4573C20.6916 32.752 20.5861 36.5574 23.9703 40.6442C27.7395 45.1467 35.5209 46.9982 43.5467 46.9982H58.1299C65.4575 46.9982 70.2733 45.636 75.9264 40.9928C79.4143 38.0922 81.1257 35.8938 83.043 31.8103L97.8053 0H77.1471L66.2964 22.9763C63.2957 30.2033 61.6899 31.8103 52.095 31.8103C46.025 31.8103 43.6874 26.8521 45.5009 22.9763L56.1774 0Z" fill="#FFF100"/>
</svg>
