<svg width="305" height="90" viewBox="0 0 305 90" fill="none" xmlns="http://www.w3.org/2000/svg">
<path d="M15 62H305L290 90H0L15 62Z" fill="#DC3545"/>
<path fill-rule="evenodd" clip-rule="evenodd" d="M30.6213 69.5138H27.14L24.866 79.4838C24.4524 81.3103 23.2451 82.381 20.9025 82.381C19.3168 82.381 18.2133 81.4477 18.6972 79.3464L20.936 69.5138H17.4531L15.1791 79.5525C14.8676 81.069 14.9363 82.2771 15.5927 83.2088C16.6962 84.7269 18.868 85.0386 20.3499 85.0386C24.4507 85.0386 27.4498 83.3478 28.3456 79.3481L30.6213 69.5138Z" fill="white"/>
<path fill-rule="evenodd" clip-rule="evenodd" d="M40.9947 80.0334H40.926L36.8939 69.5138H33.3088L29.8275 84.6565H32.999L35.4789 73.8604H35.5141L39.7204 84.6565H43.0979L46.5791 69.5138H43.4076L40.9947 80.0334Z" fill="white"/>
<path fill-rule="evenodd" clip-rule="evenodd" d="M52.4733 69.5138H49.0959L45.6129 84.6565H49.0272L52.4733 69.5138Z" fill="white"/>
<path fill-rule="evenodd" clip-rule="evenodd" d="M58.4362 80.9651H58.4027L57.5403 69.5138H53.8866L55.9211 84.6565H59.1612L68.1566 69.5138H64.6067L58.4362 80.9651Z" fill="white"/>
<path fill-rule="evenodd" clip-rule="evenodd" d="M81.8071 69.5138H69.8462L66.3633 84.6565H78.7378L79.359 81.9688H70.3285L71.2243 78.0344H79.153L79.7726 75.3785H71.8456L72.5689 72.1714H81.221L81.8071 69.5138Z" fill="white"/>
<path fill-rule="evenodd" clip-rule="evenodd" d="M81.0134 84.6565H84.3574L85.7372 78.7248H89.2519C91.7687 78.7248 91.6983 79.519 91.2496 81.5868C90.8712 83.1384 90.836 83.931 90.9063 84.6565H94.6622L94.766 84.2427C94.1096 84.0014 94.2134 83.4501 94.7309 81.2416C95.3856 78.4131 94.766 77.9322 93.5235 77.3793C95.2818 76.8967 96.4891 75.4473 96.8675 73.79C97.1773 72.4814 97.0751 69.5121 92.7315 69.5121H84.4947L81.0134 84.6565ZM86.2881 76.1728L87.2174 72.1362H91.4924C93.4917 72.1362 93.5955 73.3091 93.4231 74.1017C93.0765 75.5863 92.0785 76.1728 90.2851 76.1728H86.2881Z" fill="white"/>
<path fill-rule="evenodd" clip-rule="evenodd" d="M97.1455 80.0016C96.7319 81.8632 97.0065 85.0386 102.971 85.0386C104.384 85.0386 109.485 84.6565 110.52 80.1038C111.141 77.3809 109.312 76.5163 107.176 76.0337L103.42 75.102C102.763 74.9646 101.799 74.7217 102.074 73.5487C102.383 72.1714 104.003 71.7223 105.314 71.7223C108.277 71.7223 108.174 73.3074 108.14 73.9978H111.38C111.794 72.1345 111.139 69.0982 106.176 69.0982C100.868 69.0982 99.2135 72.0658 98.835 73.7548C98.0765 77.1011 100.489 77.6524 102.971 78.2036L104.659 78.584C106.28 78.9644 107.45 79.2744 107.174 80.4808C106.796 82.0677 104.935 82.448 103.313 82.448C100.349 82.448 100.247 80.826 100.417 79.9999H97.1455V80.0016Z" fill="white"/>
<path fill-rule="evenodd" clip-rule="evenodd" d="M118.17 69.5138H114.793L111.312 84.6565H114.724L118.17 69.5138Z" fill="white"/>
<path fill-rule="evenodd" clip-rule="evenodd" d="M117.412 84.6565H124.478C129.853 84.6565 132.301 79.9664 133.062 76.7241C133.715 73.8604 133.577 69.5138 128.062 69.5138H120.858L117.412 84.6565ZM123.618 72.1345H126.893C128.341 72.1345 130.547 72.4813 129.512 76.9637C128.959 79.447 127.442 82.0358 124.651 82.0358H121.342L123.618 72.1345Z" fill="white"/>
<path fill-rule="evenodd" clip-rule="evenodd" d="M137.472 81.5164H143.472L143.815 84.6565H147.502L145.23 69.5138H141.3L132.027 84.6565H135.613L137.472 81.5164ZM142.437 72.9304H142.471L143.127 78.8974H138.991L142.437 72.9304Z" fill="white"/>
<path fill-rule="evenodd" clip-rule="evenodd" d="M149.192 84.6565H156.26C161.637 84.6565 164.118 79.9664 164.842 76.7241C165.5 73.8604 165.363 69.5138 159.88 69.5138H152.673L149.192 84.6565ZM155.396 72.1345H158.67C160.118 72.1345 162.359 72.4813 161.327 76.9637C160.741 79.447 159.224 82.0358 156.468 82.0358H153.157L155.396 72.1345Z" fill="white"/>
<path fill-rule="evenodd" clip-rule="evenodd" d="M180.559 69.5138H168.563L165.116 84.6565H177.491L178.079 81.9688H169.048L169.942 78.0344H177.906L178.524 75.3785H170.562L171.287 72.1714H179.937L180.559 69.5138Z" fill="white"/>
<path fill-rule="evenodd" clip-rule="evenodd" d="M190.106 79.1738H194.037C198.415 79.1738 199.999 75.722 200.346 74.343C200.999 71.3771 199.519 69.5138 196.381 69.5138H188.936L185.456 84.6565H188.867L190.106 79.1738ZM190.728 76.5867L191.727 72.1362H194.448C196.552 72.1362 197.277 72.7243 196.964 74.2056C196.793 74.8943 196.416 76.5867 193.864 76.5867H190.728Z" fill="white"/>
<path fill-rule="evenodd" clip-rule="evenodd" d="M202.62 81.5164H208.616L208.961 84.6565H212.65L210.376 69.5138H206.445L197.173 84.6565H200.758L202.62 81.5164ZM207.583 72.9304H207.618L208.273 78.8974H204.102L207.583 72.9304Z" fill="white"/>
<path fill-rule="evenodd" clip-rule="evenodd" d="M230.849 69.5138H227.401L225.092 79.4838C224.68 81.3103 223.506 82.381 221.163 82.381C219.576 82.381 218.472 81.4477 218.956 79.3464L221.195 69.5138H217.714L215.406 79.5525C215.13 81.069 215.164 82.2771 215.853 83.2088C216.959 84.7269 219.097 85.0386 220.612 85.0386C224.713 85.0386 227.712 83.3478 228.608 79.3481L230.849 69.5138Z" fill="white"/>
<path fill-rule="evenodd" clip-rule="evenodd" d="M237.121 69.5138H233.712L230.227 84.6565H241.741L242.397 81.8968H234.261L237.121 69.5138Z" fill="white"/>
<path fill-rule="evenodd" clip-rule="evenodd" d="M250.221 69.5138H246.81L243.362 84.6565H246.741L250.221 69.5138Z" fill="white"/>
<path fill-rule="evenodd" clip-rule="evenodd" d="M249.668 80.0016C249.219 81.8632 249.531 85.0386 255.494 85.0386C256.909 85.0386 262.007 84.6565 263.046 80.1038C263.665 77.3809 261.803 76.5163 259.698 76.0337L255.944 75.102C255.289 74.9646 254.29 74.7217 254.566 73.5487C254.877 72.1714 256.53 71.7223 257.84 71.7223C260.805 71.7223 260.7 73.3074 260.631 73.9978H263.905C264.32 72.1345 263.665 69.0982 258.665 69.0982C253.394 69.0982 251.738 72.0658 251.326 73.7548C250.566 77.1011 253.012 77.6524 255.494 78.2036L257.146 78.584C258.802 78.9644 259.938 79.2744 259.697 80.4808C259.317 82.0677 257.424 82.448 255.837 82.448C252.838 82.448 252.769 80.826 252.94 79.9999H249.668V80.0016Z" fill="white"/>
<path fill-rule="evenodd" clip-rule="evenodd" d="M273.866 72.1714H278.794L279.416 69.5138H266.145L265.559 72.1714H270.455L267.625 84.6565H271.04L273.866 72.1714Z" fill="white"/>
<path fill-rule="evenodd" clip-rule="evenodd" d="M279.968 81.5164H285.966L286.309 84.6565H289.998L287.723 69.5138H283.793L274.519 84.6565H278.106L279.968 81.5164ZM284.93 72.9304H284.965L285.621 78.8974H281.484L284.93 72.9304Z" fill="white"/>
<path fill-rule="evenodd" clip-rule="evenodd" d="M242.992 8.65969L236.955 21.1934H251.888C253.179 21.1934 253.985 20.984 255.1 20.3221C256.147 19.6938 256.706 19.1341 257.228 18.0181L259.183 13.9664C259.775 12.7801 259.496 11.7328 258.834 10.6135C258.032 9.25286 256.845 8.65969 255.274 8.65969H242.992V8.65969ZM226.629 0H277.153C279.352 0 280.747 0.978572 282.141 2.65421C284.447 5.48268 283.679 8.72839 282.141 12.0093L276.981 22.9746C275.829 25.4546 275.166 27.0247 273.072 28.8042C270.316 31.1099 267.943 31.8086 264.347 31.8086H231.793C229.979 36.4166 227.92 38.9317 223.804 41.6898C220.105 44.1346 217.384 45.2154 212.953 45.2154H205.485L226.629 0Z" fill="#FFF100"/>
<path d="M242.992 8.65969L236.955 21.1934H251.888C253.179 21.1934 253.985 20.984 255.1 20.3221C256.147 19.6938 256.706 19.1341 257.228 18.0181L259.183 13.9664C259.775 12.7801 259.496 11.7328 258.834 10.6135C258.032 9.25286 256.845 8.65969 255.274 8.65969H242.992V8.65969ZM226.629 0H277.153C279.352 0 280.747 0.978572 282.141 2.65421C284.447 5.48268 283.679 8.72839 282.141 12.0093L276.981 22.9746C275.829 25.4546 275.166 27.0247 273.072 28.8042C270.316 31.1099 267.943 31.8086 264.347 31.8086H231.793C229.979 36.4166 227.92 38.9317 223.804 41.6898C220.105 44.1346 217.384 45.2154 212.953 45.2154H205.485L226.629 0Z" fill="#FFF100"/>
<path fill-rule="evenodd" clip-rule="evenodd" d="M167.238 0.174255H186.429L171.672 31.9845C169.473 36.6981 166.962 39.421 162.598 42.5628C159.947 44.52 152.342 46.7888 145.885 45.3913L133.604 21.5436L128.822 31.9829C126.66 36.626 124.076 39.4193 119.749 42.5611C117.064 44.5183 109.456 46.7871 103.003 45.3896L124.354 0.174255H143.581L156.734 22.2776L167.238 0.174255Z" fill="#FFF100"/>
<path fill-rule="evenodd" clip-rule="evenodd" d="M175.23 45.2187L196.409 0H215.602L200.843 31.8103C198.645 36.5238 196.131 39.2484 191.771 42.3886C189.117 44.3474 181.685 46.6145 175.23 45.2187Z" fill="#FFF100"/>
<path fill-rule="evenodd" clip-rule="evenodd" d="M71.1774 0H51.0785L37.7496 28.4573C35.6916 32.752 35.5861 36.5574 38.9703 40.6442C42.7395 45.1467 50.5209 46.9982 58.5467 46.9982H73.1299C80.4575 46.9982 85.2733 45.636 90.9264 40.9928C94.4143 38.0922 96.1257 35.8938 98.043 31.8103L112.805 0H92.1471L81.2964 22.9763C78.2957 30.2033 76.6899 31.8103 67.095 31.8103C61.025 31.8103 58.6874 26.8521 60.5009 22.9763L71.1774 0Z" fill="#FFF100"/>
</svg>
